<svg width="512" height="512" xmlns="http://www.w3.org/2000/svg">
  <g id="Layer_1">
    <title>Layer 1</title>
    <path transform="rotate(90 255.73 254.929)" stroke-width="0" id="svg_4" d="m-0.20051,254.92882l109.68439,-218.57142l292.4917,0l109.68436,218.57142l-109.68436,218.57142l-292.4917,0l-109.68439,-218.57142z" fill="#333333"/>
    <path stroke-width="0" id="svg_5" d="m362.17099,188.61758l38.26988,-0.48624c0.21596,0.21597 -0.32458,-63.02721 -0.32458,-63.02721c0.33168,-26.53564 -35.7042,-61.16623 -71.83751,-62.1078c-79.78386,-0.69312 -145.1893,-0.0543 -145.40527,-0.27027c-39.38724,-0.91719 -70.77826,34.85514 -70.81074,62.1621c-1.13538,18.32406 -0.0543,51.02673 -0.0543,51.02673c3.78378,45.13509 45.13509,58.91886 44.91912,58.70289c9.94569,4.54029 180.21579,57.51321 179.99983,57.29724c0.21596,0.21597 23.45918,6.70245 25.0808,32.10783c0,26.21619 0.27027,25.40538 -0.21596,50.5948c-3.02728,34.26998 -35.72995,34.26998 -35.72995,34.26998c0,0 -50.26518,0.63724 -150.29765,0.60477c-9.47306,-0.31308 -26.52001,-11.93188 -26.42965,-26.26612c0.0424,-44.38107 0.241,-50.82506 0.02503,-51.04102c-15.93082,-0.3345 -37.35156,-0.05431 -37.56753,-0.27027c0.21597,0.21596 -0.32457,26.70242 0.54054,52.43238c0.88048,39.57124 37.52315,63.66246 62.97291,63.78372c10.7565,0.48623 155.35095,-0.86512 155.13499,-1.08108c32.82934,1.41358 69.85884,-24.66868 69.45939,-63.78372c2.10785,-52.48669 -0.05431,-68.70289 -0.05431,-68.70289c-0.54054,-18.37836 -21.89187,-51.08103 -53.45915,-59.94564c-29.51374,-9.24348 1.14843,0.06725 -178.64848,-55.67562c-8.65335,-3.04462 -16.80112,-11.06594 -17.25488,-22.53382c0,-24.05403 -0.90751,-21.03395 0.49814,-45.84449c0.273,-15.64318 15.89906,-29.41703 30.54051,-29.01559c119.44978,-0.13117 111.87715,-0.13117 146.35246,0.0967c22.91864,0.75651 32.41528,9.30596 33.29032,26.71706c0.48623,26.43216 1.00605,60.25558 1.00605,60.25558l-0.00001,0z" opacity="NaN" stroke="#000" fill="#fff"/>
  </g>

</svg>